<?xml version="1.0" encoding="utf-8"?>
<svg version="1.1" id="LOGO" xmlns="http://www.w3.org/2000/svg" xmlns:xlink="http://www.w3.org/1999/xlink" x="0px" y="0px"
	 viewBox="0 0 501.3 54.6" style="fill: #fff;">
<g>
	<path d="M22.8,27.3c0,2.1-0.3,4.1-0.9,6c-0.6,1.9-1.6,3.4-2.8,4.7c-0.9,0.9-1.9,1.6-3.1,2.1c-1.2,0.5-2.6,0.7-4.2,0.7
		c-1.5,0-2.9-0.3-4.4-1c-1.5-0.7-2.6-1.7-3.3-3l-0.3,3.4H0V3.3h4.3v14c0.3-0.6,0.8-1.1,1.4-1.6c0.6-0.5,1.2-0.8,1.9-1.1
		c0.7-0.3,1.4-0.5,2.1-0.7c0.7-0.2,1.5-0.3,2.2-0.3c1.5,0,2.9,0.2,4.1,0.7c1.2,0.5,2.2,1.1,3,1.9c1.3,1.3,2.3,2.8,2.9,4.8
		C22.5,23,22.8,25.1,22.8,27.3z M18.4,27.3c0-1.2-0.1-2.4-0.3-3.5c-0.2-1.2-0.6-2.2-1.1-3.2c-0.5-1-1.3-1.7-2.2-2.3
		c-1-0.6-2.1-0.9-3.6-0.9c-1,0-1.8,0.2-2.4,0.5c-0.7,0.3-1.2,0.7-1.8,1.2c-1.1,1-1.8,2.2-2.2,3.6c-0.4,1.4-0.6,3-0.6,4.6
		s0.2,3.2,0.6,4.6c0.4,1.4,1.2,2.6,2.2,3.6C7.4,36,8,36.4,8.7,36.7s1.5,0.5,2.4,0.5c1.4,0,2.6-0.3,3.6-0.9c1-0.6,1.7-1.3,2.2-2.3
		c0.5-1,0.9-2,1.1-3.2C18.3,29.6,18.4,28.5,18.4,27.3z"/>
	<path d="M45.5,40.2l-0.4-3.9c-0.7,1.5-1.7,2.6-3.2,3.4c-1.4,0.8-2.9,1.1-4.5,1.1c-3,0-5.2-0.8-6.6-2.5c-1.5-1.7-2.2-4-2.2-7V14.4
		H33v16.3c0,1.9,0.4,3.5,1.2,4.5c0.8,1.1,2.2,1.6,4.3,1.6c0.9,0,1.7-0.2,2.4-0.5c0.7-0.4,1.3-0.8,1.9-1.4c0.8-0.8,1.4-1.9,1.7-3.2
		s0.5-2.6,0.5-3.9V14.4h4.3v25.8H45.5z"/>
	<path d="M57.2,8.4V3.3h5v5.1H57.2z M57.5,40.2V14.4h4.4v25.8H57.5z"/>
	<path d="M78.4,40.2c-0.2,0.1-0.5,0.1-0.8,0.2c-0.5,0.1-1.3,0.2-2.3,0.2c-1.9,0-3.3-0.5-4.1-1.6c-0.9-1.1-1.3-2.7-1.3-4.7V3.3h4.3
		v30.5c0,0.9,0.2,1.5,0.5,2c0.3,0.4,1,0.7,1.8,0.7h1.4c0.1,0,0.3,0,0.4-0.1V40.2z"/>
	<path d="M100.5,40.2l-0.3-3.4c-0.7,1.3-1.9,2.3-3.3,3c-1.5,0.7-2.9,1-4.4,1c-1.6,0-3-0.2-4.2-0.7C87,39.6,86,38.9,85.2,38
		c-1.2-1.3-2.2-2.8-2.8-4.7c-0.6-1.9-0.9-3.9-0.9-6c0-2.2,0.3-4.3,1-6.2c0.7-1.9,1.6-3.5,2.9-4.8c0.8-0.8,1.9-1.4,3-1.9
		c1.2-0.5,2.5-0.7,4.1-0.7c0.7,0,1.4,0.1,2.2,0.3c0.7,0.2,1.4,0.4,2.1,0.7c0.7,0.3,1.3,0.7,1.9,1.1c0.6,0.5,1,1,1.4,1.6v-14h4.3
		v36.8H100.5z M100.2,27.3c0-1.6-0.2-3.2-0.6-4.6c-0.4-1.4-1.2-2.6-2.2-3.6c-0.5-0.5-1.1-0.9-1.8-1.2c-0.7-0.3-1.5-0.5-2.4-0.5
		c-1.4,0-2.6,0.3-3.6,0.9c-1,0.6-1.7,1.3-2.2,2.3c-0.5,1-0.9,2-1.1,3.2c-0.2,1.2-0.3,2.4-0.3,3.5c0,1.2,0.1,2.4,0.3,3.5
		c0.2,1.2,0.6,2.2,1.1,3.2c0.5,1,1.3,1.7,2.2,2.3c1,0.6,2.1,0.9,3.6,0.9c1,0,1.8-0.2,2.4-0.5c0.7-0.3,1.2-0.7,1.8-1.2
		c1.1-1,1.8-2.1,2.2-3.6C100,30.4,100.2,28.9,100.2,27.3z"/>
	<path d="M112.2,8.4V3.3h5v5.1H112.2z M112.5,40.2V14.4h4.4v25.8H112.5z"/>
	<path d="M138.5,39.8c-0.6,0.2-1.3,0.3-2.1,0.5c-0.8,0.2-1.8,0.2-3,0.2c-1.4,0-2.5-0.2-3.5-0.6s-1.6-0.9-2.2-1.6
		c-0.5-0.6-0.9-1.4-1.1-2.2c-0.2-0.8-0.3-1.7-0.3-2.6V18.1h-5v-3.7h5V7.8l4.3-1v7.6h7.6v3.7h-7.6V33c0,1.3,0.3,2.2,0.8,2.7
		c0.6,0.5,1.4,0.8,2.6,0.8c0.5,0,1,0,1.5-0.1c0.5,0,1-0.1,1.4-0.2c0.5-0.1,1-0.2,1.5-0.3V39.8z"/>
	<path d="M193.3,20.8c0,1.5-0.2,3.1-0.6,4.7c-0.4,1.6-1,3.1-1.8,4.4c-0.8,1.3-1.9,2.4-3.2,3.3c-1.3,0.9-2.9,1.3-4.8,1.3
		c-1.3,0-2.4-0.3-3.3-0.9c-0.9-0.6-1.5-1.6-1.7-2.9c-0.5,1.2-1.3,2.1-2.5,2.8c-1.2,0.7-2.4,1-3.6,1c-1.3,0-2.5-0.2-3.5-0.7
		c-1-0.5-1.8-1.2-2.5-2c-0.7-0.9-1.2-1.9-1.5-3.1s-0.5-2.5-0.5-3.9c0-1.4,0.2-2.8,0.6-4.1c0.4-1.3,1-2.4,1.8-3.3
		c0.8-0.9,1.8-1.7,2.9-2.2c1.2-0.6,2.5-0.8,4-0.8c1,0,1.9,0.2,2.8,0.7c0.9,0.5,1.6,1.1,2.1,2l0.6-2.1h3.4l-0.9,12.9
		c0,0.4,0,0.8,0,1.1c0,0.4,0.1,0.7,0.3,1c0.2,0.3,0.4,0.6,0.7,0.7c0.3,0.2,0.7,0.3,1.1,0.3c1.1,0,2.1-0.4,2.8-1.1
		c0.7-0.7,1.4-1.6,1.8-2.7s0.8-2.1,1-3.3c0.2-1.2,0.3-2.2,0.3-3c0-2.1-0.3-4-1-5.5c-0.6-1.6-1.5-2.9-2.7-4.1c-1.3-1.3-2.9-2.3-4.8-3
		c-1.9-0.7-4-1-6.4-1c-2.4,0-4.5,0.4-6.5,1.1c-1.9,0.7-3.6,1.7-5,3c-1.7,1.5-3.1,3.4-4,5.6c-0.9,2.2-1.4,4.8-1.4,7.6
		c0,2.4,0.4,4.6,1.2,6.6c0.8,2,1.9,3.8,3.3,5.3c1.4,1.4,3,2.5,4.8,3.2c1.9,0.8,3.9,1.1,6.2,1.1c2.3,0,4.5-0.2,6.5-0.5
		c2-0.4,4.1-1,6.3-1.9V42c-2,1-4.1,1.7-6.3,2c-2.1,0.4-4.3,0.5-6.6,0.5c-2.8,0-5.3-0.4-7.6-1.3c-2.3-0.9-4.3-2.1-6-3.6
		c-2-1.8-3.6-4.1-4.6-6.8S153,27.3,153,24c0-3.2,0.5-6,1.6-8.4c1-2.5,2.5-4.6,4.4-6.4c1.9-1.8,4.1-3.3,6.7-4.3s5.4-1.5,8.6-1.5
		c2.9,0,5.6,0.5,8.1,1.4c2.4,0.9,4.5,2.2,6.3,4c1.5,1.5,2.7,3.2,3.5,5.2C192.9,15.9,193.3,18.2,193.3,20.8z M177.7,23.6
		c0-0.7-0.1-1.5-0.2-2.2c-0.2-0.7-0.4-1.3-0.8-1.9c-0.4-0.5-0.8-1-1.4-1.3c-0.6-0.3-1.3-0.5-2.2-0.5c-0.9,0-1.7,0.2-2.3,0.7
		c-0.6,0.4-1.1,1-1.5,1.7s-0.7,1.4-0.8,2.2c-0.2,0.8-0.2,1.6-0.2,2.4c0,0.7,0.1,1.4,0.2,2.1c0.1,0.7,0.4,1.4,0.7,1.9
		c0.3,0.6,0.8,1,1.3,1.4c0.6,0.4,1.3,0.5,2.1,0.5c1,0,1.9-0.2,2.5-0.6c0.6-0.4,1.2-1,1.6-1.7c0.4-0.7,0.7-1.4,0.8-2.3
		C177.6,25.3,177.7,24.4,177.7,23.6z"/>
</g>
<g>
	<g>
		<rect x="392.9" y="3.3" width="5.1" height="5.1"/>
		<path d="M392.9,40.2V14.3h5.1v25.9H392.9z"/>
		<rect x="432.4" y="3.3" width="5.1" height="5.1"/>
		<path d="M432.4,40.2V14.3h5.1v25.9H432.4z"/>
		<g>
			<path d="M382.4,40.2l-0.3-3.4c-0.8,1.3-1.9,2.3-3.3,3c-1.5,0.7-2.9,1-4.4,1c-1.6,0-3-0.2-4.2-0.7s-2.2-1.2-3.1-2.1
				c-1.2-1.3-2.2-2.8-2.8-4.7c-0.6-1.9-0.9-3.9-0.9-6c0-2.3,0.3-4.3,1-6.3c0.7-1.9,1.6-3.5,2.9-4.8c0.9-0.8,1.9-1.4,3-1.9
				c1.2-0.5,2.5-0.7,4.1-0.7c0.7,0,1.4,0.1,2.2,0.3c0.7,0.2,1.4,0.4,2.1,0.7s1.3,0.7,1.9,1.2c0.6,0.5,1,1,1.4,1.6V3.3h4.4v37
				L382.4,40.2L382.4,40.2z M382.1,27.3c0-1.6-0.2-3.2-0.6-4.6c-0.4-1.5-1.2-2.7-2.3-3.6c-0.5-0.5-1.1-0.9-1.8-1.2
				c-0.7-0.3-1.5-0.5-2.4-0.5c-1.4,0-2.6,0.3-3.6,0.9s-1.7,1.3-2.3,2.3c-0.5,1-0.9,2-1.2,3.2c-0.2,1.2-0.3,2.4-0.3,3.6
				s0.1,2.4,0.3,3.6c0.2,1.2,0.6,2.2,1.2,3.2c0.5,1,1.3,1.7,2.3,2.3s2.2,0.9,3.6,0.9c1,0,1.8-0.2,2.4-0.5c0.7-0.3,1.3-0.7,1.8-1.2
				c1.1-1,1.8-2.2,2.3-3.6C381.9,30.5,382.1,28.9,382.1,27.3z"/>
			<path d="M427.3,44.1c0,1.1-0.2,2.1-0.6,3s-0.9,1.6-1.6,2.2c-0.6,0.6-1.3,1.1-2.2,1.5c-0.8,0.4-1.7,0.7-2.6,0.9s-1.9,0.4-2.8,0.5
				c-1,0.1-1.9,0.1-2.8,0.1s-1.7,0-2.6-0.1s-1.8-0.2-2.6-0.5c-0.9-0.2-1.7-0.5-2.5-0.9s-1.5-0.9-2.1-1.5c-0.5-0.5-1-1.2-1.3-1.9
				c-0.3-0.8-0.5-1.6-0.5-2.7c0-1.4,0.4-2.5,1.1-3.5s1.6-1.7,2.6-2.2c-0.9-0.3-1.6-0.9-2.2-1.7s-0.8-1.7-0.8-2.7c0-1.2,0.3-2.2,1-3
				c0.6-0.9,1.5-1.5,2.5-2c-1-0.9-1.7-1.9-2.2-3.1s-0.8-2.4-0.8-3.6c0-1.4,0.2-2.6,0.7-3.6c0.4-1,1-1.9,1.8-2.7
				c0.9-0.9,2-1.6,3.2-2.2c1.2-0.5,2.7-0.8,4.5-0.8c1.2,0,2.3,0.1,3.3,0.4c1,0.3,1.9,0.6,2.6,1.1c0.4-1.2,1.1-2.1,2.1-2.7
				c0.9-0.6,2-0.9,3.3-0.9c0.2,0,0.4,0,0.6,0s0.4,0,0.6,0.1v3.5c-0.1,0-0.3-0.1-0.5-0.1H426c-0.9,0-1.6,0.2-2.1,0.6
				c-0.6,0.4-0.9,1-1,1.7c0.5,0.7,1,1.5,1.3,2.3c0.3,0.9,0.4,1.9,0.4,3c0,1.2-0.2,2.4-0.6,3.4c-0.4,1.1-1,2-1.7,2.8
				c-0.9,0.9-1.9,1.7-3.2,2.2c-1.3,0.6-2.8,0.8-4.5,0.8c-0.9,0-1.6-0.1-2.2-0.2s-1.3-0.3-2.1-0.6c-0.5,0.2-1,0.4-1.5,0.8
				c-0.5,0.4-0.7,0.9-0.7,1.5s0.1,1,0.4,1.4c0.3,0.3,0.6,0.6,0.9,0.8c0.4,0.2,0.8,0.3,1.3,0.4c0.5,0.1,0.9,0.1,1.3,0.1h5.1
				c1.5,0,3.1,0.2,4.7,0.6c1.6,0.4,2.9,1.1,3.9,2.2c0.6,0.6,1.1,1.3,1.5,2.2C427.1,42,427.3,43,427.3,44.1z M423,44.1
				c0-1-0.2-1.7-0.6-2.3c-0.4-0.5-1-1-1.6-1.2c-0.7-0.3-1.4-0.4-2.2-0.5c-0.8-0.1-1.6-0.1-2.4-0.1h-6c-0.9,0.3-1.7,0.8-2.3,1.5
				c-0.6,0.7-1,1.6-1,2.6c0,1.1,0.4,2,1.1,2.7c0.4,0.4,0.9,0.7,1.5,1c0.6,0.2,1.2,0.4,1.8,0.5c0.6,0.1,1.2,0.2,1.9,0.2
				c0.6,0,1.2,0.1,1.8,0.1c0.5,0,1.1,0,1.8-0.1c0.6,0,1.3-0.1,1.9-0.3c0.6-0.1,1.3-0.3,1.8-0.6c0.6-0.2,1.1-0.6,1.5-1
				C422.7,46,423,45.1,423,44.1z M420,22.9c0-1.6-0.5-3-1.6-4.1c-1-1.1-2.5-1.6-4.3-1.6s-3.2,0.5-4.3,1.6c-1.1,1.1-1.6,2.4-1.6,4.1
				c0,1.6,0.5,3,1.6,4.1c1,1.1,2.5,1.7,4.3,1.7s3.2-0.6,4.3-1.7C419.5,25.9,420,24.5,420,22.9z"/>
			<path d="M460.6,39.9c-0.6,0.2-1.3,0.3-2.1,0.5c-0.8,0.2-1.9,0.2-3,0.2c-1.4,0-2.6-0.2-3.5-0.6c-0.9-0.4-1.6-0.9-2.2-1.6
				c-0.5-0.6-0.9-1.4-1.1-2.2s-0.3-1.7-0.3-2.6V18.1h-5v-3.7h5V7.7l4.4-1v7.6h7.7V18h-7.7v15c0,1.3,0.3,2.2,0.8,2.7
				c0.6,0.5,1.4,0.8,2.6,0.8c0.5,0,1,0,1.5-0.1c0.5,0,1-0.1,1.4-0.2c0.5-0.1,1-0.2,1.5-0.3L460.6,39.9L460.6,39.9z"/>
			<path d="M489.7,40c-0.5,0.2-0.9,0.4-1.4,0.5c-0.4,0.1-0.9,0.1-1.5,0.1c-1.2,0-2.1-0.4-2.7-1.2c-0.7-0.8-1-1.7-1-2.8H483
				c-0.8,1.3-1.9,2.3-3.4,3.1s-3.1,1.2-5,1.2c-1.5,0-2.8-0.2-3.9-0.7s-2-1.1-2.8-1.8c-0.7-0.8-1.3-1.6-1.7-2.6
				c-0.4-1-0.6-1.9-0.6-2.9c0-0.8,0.1-1.7,0.4-2.6s0.8-1.8,1.5-2.5c0.7-0.8,1.7-1.4,2.8-2c1.2-0.5,2.7-0.9,4.4-1l7.9-0.5v-1.9
				c0-0.6-0.1-1.3-0.2-2c-0.2-0.7-0.5-1.3-1.1-1.9c-0.4-0.4-1-0.7-1.7-1c-0.7-0.2-1.5-0.4-2.6-0.4c-1.2,0-2.2,0.1-2.9,0.4
				c-0.8,0.3-1.3,0.7-1.8,1.1c-0.9,0.9-1.3,1.9-1.3,3.1h-4.3c0-1.2,0.2-2.2,0.6-3.1s0.9-1.6,1.6-2.3c0.9-0.9,2-1.6,3.5-2.1
				c1.4-0.5,2.9-0.7,4.5-0.7c2.5,0,4.5,0.5,6,1.4s2.5,2.1,3.1,3.6c0.5,1.2,0.8,2.5,0.8,4V35c0,0.7,0.1,1.1,0.4,1.4
				c0.3,0.2,0.6,0.4,1,0.4h0.4c0.1,0,0.3,0,0.4-0.1l0.4-0.1V40H489.7z M482.8,27.7l-7,0.4c-0.6,0-1.3,0.1-2,0.3
				c-0.7,0.2-1.3,0.5-1.8,0.8c-0.5,0.4-1,0.8-1.3,1.4s-0.5,1.3-0.5,2.1c0,1.2,0.4,2.2,1.2,3.1c0.8,0.9,2.1,1.4,3.9,1.4
				c1,0,2-0.2,2.9-0.5s1.7-0.9,2.4-1.6c0.8-0.8,1.3-1.7,1.7-2.7c0.3-1,0.5-2.1,0.5-3.2L482.8,27.7L482.8,27.7z"/>
			<path d="M501.3,40.2c-0.2,0.1-0.5,0.1-0.8,0.2c-0.5,0.1-1.3,0.2-2.3,0.2c-1.9,0-3.3-0.5-4.1-1.6c-0.9-1.1-1.3-2.7-1.3-4.7v-31
				h4.4V34c0,0.9,0.2,1.6,0.5,2s1,0.7,1.8,0.7h1.4c0.1,0,0.3,0,0.4-0.1V40.2z"/>
		</g>
	</g>
	<g>
		<g>
			<g>
				<path d="M334.4,12.1c-7.7,0-14,6.5-14,14.4c0,8,6.3,14.4,14,14.4s14-6.5,14-14.4C348.5,18.6,342.2,12.1,334.4,12.1 M334.4,34.2
					c-4,0-7.2-3.4-7.2-7.6s3.2-7.6,7.2-7.6s7.2,3.4,7.2,7.6C341.6,30.8,338.4,34.2,334.4,34.2 M246.4,12.9h-5.2
					c-0.4,0-0.9,0.3-1,0.8l-4.3,13.2l-7.3-14.1c-0.2-0.4-0.7-0.7-1.2-0.7h-0.5c-0.4,0-1,0.3-1.2,0.7l-7.3,14.1l-4.3-13.2
					c-0.1-0.4-0.6-0.8-1-0.8h-5.2c-0.7,0-1,0.5-0.8,1.1l8.4,26.2c0.1,0.4,0.6,0.8,1,0.8h0.8c0.4,0,1-0.3,1.2-0.7l8.6-16.6l8.6,16.6
					c0.2,0.4,0.7,0.7,1.2,0.7h0.8c0.4,0,0.9-0.3,1-0.8l8.4-26.2C247.4,13.5,247,12.9,246.4,12.9 M258.4,12.9h-5.2
					c-0.7,0-1.2,0.5-1.2,1.2V39c0,0.7,0.5,1.2,1.2,1.2h5.2c0.7,0,1.2-0.5,1.2-1.2V14.1C259.6,13.5,259.1,12.9,258.4,12.9
					 M281.2,12.1c-3.6,0-6.8,1.6-9.2,4.1l0,0l-0.9-2.5c-0.2-0.4-0.6-0.8-1.1-0.8h-2.4c-0.7,0-1.2,0.5-1.2,1.2v39.3
					c0,0.7,0.5,1.2,1.2,1.2h5.2c0.7,0,1.2-0.5,1.2-1.2V39.8c2.2,0.8,4.6,1.2,7.2,1.2c7.3,0,13.2-6.5,13.2-14.4
					C294.4,18.6,288.5,12.1,281.2,12.1 M279.8,34.2c-2.2,0-4.2-0.6-5.8-1.5V22.3c1.3-2,3.4-3.4,5.8-3.4c3.9,0,7,3.4,7,7.6
					C286.8,30.8,283.7,34.2,279.8,34.2 M313.7,12.1c-5,0-7.9,4.1-7.9,4.1l-0.9-2.5c-0.2-0.4-0.6-0.8-1.1-0.8h-2.5
					c-0.7,0-1.2,0.5-1.2,1.2V39c0,0.7,0.5,1.2,1.2,1.2h5.2c0.7,0,1.2-0.5,1.2-1.2V21.6c3-3.7,6.9-2.4,7.7-2.1
					c0.8,0.3,1.4-0.1,1.6-0.6s1.4-3.1,1.8-4.1C319.3,13.9,318.7,12.1,313.7,12.1 M256.9,0.1c-2.2-0.6-4.6,0.7-5.2,3
					c-0.6,2.2,0.7,4.6,3,5.2c2.2,0.6,4.6-0.7,5.2-3C260.5,3.1,259.2,0.7,256.9,0.1"/>
			</g>
		</g>
	</g>
</g>
</svg>
